# xmcd CD database file
#
# Track frame offsets:
#	150
#	14907
#	28327
#	42732
#	55619
#	69839
#	84834
#	99649
#	114182
#	128844
#	144146
#	157349
#	172109
#	187779
#	199092
#	213137
#
# Disc length: 3032 seconds
#
# Revision: 0
# Processed by: cddbd v1.5PL3 Copyright (c) Steve Scherf et al.
# Submitted via: CDex 1.50
#
DISCID=da0bd610
DTITLE=Various Artist - 本物の魅力VOCAL Woman　disk-2
DYEAR=1900
DGENRE=Jazz
TTITLE0=センチメンタルジャーニー/ドリスデイ
TTITLE1=ゴールデンイヤリング/ペギーリー
TTITLE2=ソリチュード/ビリーホリディ
TTITLE3=パーパームーン/ドティリード
TTITLE4=オールオブミー/ヘレンオコンネル
TTITLE5=ブラックコーヒー/サラヴォーン
TTITLE6=恋人よ我に帰れ/ミルドレッドベイリー
TTITLE7=天使は歌う/マーサティルトン
TTITLE8=奇妙な果実/ビリーホリデイ
TTITLE9=わが心のジョージア/ミルドレッドベイリー
TTITLE10=愚かなり我が心/ミンディカースン
TTITLE11=オーレディビーグッド/エラフィッツジェラルド
TTITLE12=煙が目にしみる/ダイナショア
TTITLE13=スウィートロレイン/ジューンクリスティ
TTITLE14=素敵なあなた/アンドリュースシスターズ
TTITLE15=幻を求めて/パティペイジ
EXTD=
EXTT0=
EXTT1=
EXTT2=
EXTT3=
EXTT4=
EXTT5=
EXTT6=
EXTT7=
EXTT8=
EXTT9=
EXTT10=
EXTT11=
EXTT12=
EXTT13=
EXTT14=
EXTT15=
PLAYORDER=
